<svg width="40" height="40" viewBox="0 0 40 40" fill="none" xmlns="http://www.w3.org/2000/svg">
<path d="M28.38 0H11.62C4.34 0 0 4.34 0 11.62V28.36C0 35.66 4.34 40 11.62 40H28.36C35.64 40 39.98 35.66 39.98 28.38V11.62C40 4.34 35.66 0 28.38 0ZM20 27.76C15.72 27.76 12.24 24.28 12.24 20C12.24 15.72 15.72 12.24 20 12.24C24.28 12.24 27.76 15.72 27.76 20C27.76 24.28 24.28 27.76 20 27.76ZM31.84 9.76C31.74 10 31.6 10.22 31.42 10.42C31.22 10.6 31 10.74 30.76 10.84C30.52 10.94 30.26 11 30 11C29.46 11 28.96 10.8 28.58 10.42C28.4 10.22 28.26 10 28.16 9.76C28.06 9.52 28 9.26 28 9C28 8.74 28.06 8.48 28.16 8.24C28.26 7.98 28.4 7.78 28.58 7.58C29.04 7.12 29.74 6.9 30.38 7.04C30.52 7.06 30.64 7.1 30.76 7.16C30.88 7.2 31 7.26 31.12 7.34C31.22 7.4 31.32 7.5 31.42 7.58C31.6 7.78 31.74 7.98 31.84 8.24C31.94 8.48 32 8.74 32 9C32 9.26 31.94 9.52 31.84 9.76Z" fill="black"/>
</svg>
