<svg width="10" height="15" viewBox="0 0 10 15" fill="none" xmlns="http://www.w3.org/2000/svg">
<path d="M-0.000231772 13.4995L-0.000232297 1.49945C0.000148214 1.37796 0.0336575 1.25887 0.0966858 1.155C0.159715 1.05114 0.249877 0.966427 0.357469 0.909991C0.465061 0.853555 0.586007 0.82753 0.707289 0.834719C0.828572 0.841908 0.945596 0.882038 1.04577 0.950788L9.71243 6.95079C10.0718 7.19945 10.0718 7.79812 9.71243 8.04745L1.04577 14.0475C0.945806 14.1169 0.828722 14.1576 0.707238 14.1652C0.585753 14.1728 0.464516 14.1469 0.356696 14.0904C0.248877 14.034 0.158599 13.949 0.0956716 13.8448C0.0327453 13.7406 -0.000423455 13.6212 -0.000231772 13.4995Z" fill="#F74747"/>
</svg>
